<svg width="128" height="128" viewBox="0 0 128 128" fill="none" xmlns="http://www.w3.org/2000/svg">
  <rect width="128" height="128" rx="20" fill="#4CAF50"/>
  
  <!-- Dollar symbol -->
  <path d="M64 20 L64 108 M52 32 Q52 24 60 24 L68 24 Q76 24 76 32 Q76 40 68 40 L60 40 Q52 40 52 48 Q52 56 60 56 L68 56 Q76 56 76 64 Q76 72 68 72 L60 72 Q52 72 52 80 Q52 88 60 88 L68 88 Q76 88 76 96" 
        stroke="white" stroke-width="4" fill="none" stroke-linecap="round"/>
  
  <!-- Euro symbol -->
  <path d="M90 45 Q85 40 78 40 Q70 40 65 48 Q65 56 70 56 L82 56 M70 72 L82 72 Q85 80 78 80 Q70 80 65 72 Q65 88 90 83" 
        stroke="white" stroke-width="3" fill="none" stroke-linecap="round"/>
  
  <!-- Conversion arrows -->
  <path d="M40 64 L48 64 M44 60 L48 64 L44 68" 
        stroke="white" stroke-width="2" fill="none" stroke-linecap="round"/>
</svg>